#!OML:ASF H:\MichaelJackson\Top Level 1\Subject 1\Session 1\male.ASF
:FULLY-SPECIFIED
:DEGREES
432
root 4.9738 16.558 17.5513 -528.547 75.7358 -178.413
lowerback 2.95513 -7.71987 -5.42345
upperback 0.887818 -10.4284 1.56427
thorax 0.532295 -5.25629 4.73608
lowerneck -2.35712 -17.002 -10.2561
upperneck 14.6899 -24.1164 11.985
head 7.6247 -11.442 3.1585
rclavicle 1.5704e-014 3.97569e-015
rhumerus 0.20956 50.4531 -29.6715
rradius 95.3265
rwrist 33.7266
rhand -31.4162 -9.39086
rfingers 7.12502
rthumb -4.68501 -39.3191
lclavicle 1.5704e-014 3.97569e-015
lhumerus -34.1166 -11.1719 100.283
lradius 44.4768
lwrist 9.87588
lhand -9.2257 12.4204
lfingers 7.12502
lthumb 16.7292 41.7196
rfemur -42.5348 16.3085 20.0032
rtibia 40.9433
rfoot -1.85473 -2.54641
rtoes 26.987
lfemur -10.5733 2.83046 -19.8693
ltibia 48.5747
lfoot -5.83906 -32.0115
ltoes 40.0376
433
root 4.83147 16.5675 17.6239 -528.282 75.7803 -178.347
lowerback 2.93941 -7.84662 -5.77762
upperback 0.778577 -10.6108 1.56017
thorax 0.513399 -5.34715 4.92071
lowerneck -2.43395 -16.8909 -10.2053
upperneck 14.742 -23.9759 12.0083
head 7.63508 -11.3661 3.17213
rclavicle 3.8266e-014 8.74653e-015
rhumerus -1.87546 49.2467 -31.8017
rradius 95.9113
rwrist 33.7741
rhand -32.4248 -8.75938
rfingers 7.12502
rthumb -5.65892 -38.6638
lclavicle 3.8266e-014 8.74653e-015
lhumerus -34.1267 -11.3239 100.269
lradius 44.5456
lwrist 9.93764
lhand -9.682 12.1608
lfingers 7.12502
lthumb 16.2899 41.4966
rfemur -43.0696 16.1486 19.8426
rtibia 40.1618
rfoot -0.636196 -1.96491
rtoes 27.7222
lfemur -9.84852 2.64759 -20.053
ltibia 46.7486
lfoot -10.6947 -30.7697
ltoes 38.2569
434
root 4.68335 16.5777 17.6971 -527.832 75.9105 -178.115
lowerback 2.96992 -7.96115 -6.09638
upperback 0.671571 -10.7785 1.55391
thorax 0.464255 -5.42897 5.09142
lowerneck -2.52893 -16.7687 -10.1361
upperneck 14.7986 -23.8227 12.0418
head 7.64766 -11.2816 3.18677
rclavicle 1.39348e-013 3.18055e-015
rhumerus -3.77627 47.9611 -33.7997
rradius 96.4586
rwrist 33.8626
rhand -33.2936 -7.96798
rfingers 7.12502
rthumb -6.4977 -37.8483
lclavicle 1.39348e-013 3.18055e-015
lhumerus -34.1245 -11.486 100.2
lradius 44.6316
lwrist 10.111
lhand -10.1964 11.875
lfingers 7.12502
lthumb 15.7945 41.2507
rfemur -43.6053 15.8511 19.7831
rtibia 39.3098
rfoot 0.700023 -1.13645
rtoes 28.4665
lfemur -9.4122 2.61084 -20.2106
ltibia 45.2114
lfoot -14.9062 -29.1146
ltoes 36.0472
435
root 4.52971 16.5889 17.7705 -527.221 76.1392 -177.72
lowerback 3.05292 -8.03073 -6.37838
upperback 0.583561 -10.8879 1.52406
thorax 0.387848 -5.48007 5.22702
lowerneck -2.62646 -16.6624 -10.0105
upperneck 14.8324 -23.6988 12.1075
head 7.65402 -11.2069 3.2005
rclavicle 9.38264e-014 1.11319e-014
rhumerus -5.61081 46.5467 -35.7353
rradius 96.9816
rwrist 34.0115
rhand -34.0211 -7.08133
rfingers 7.12502
rthumb -7.19998 -36.9388
lclavicle 9.38264e-014 1.11319e-014
lhumerus -34.1034 -11.7441 100.08
lradius 44.7184
lwrist 10.3698
lhand -10.7322 11.5565
lfingers 7.12502
lthumb 15.2784 40.9722
rfemur -44.1229 15.4438 19.8421
rtibia 38.4137
rfoot 2.15959 -0.0735276
rtoes 28.9732
lfemur -9.24704 2.69916 -20.3451
ltibia 43.9992
lfoot -18.4165 -27.1596
ltoes 33.4857
436
root 4.37107 16.6007 17.8442 -526.472 76.4862 -177.156
lowerback 3.20107 -8.05384 -6.63139
upperback 0.523977 -10.9381 1.4669
thorax 0.28657 -5.50024 5.32933
lowerneck -2.71165 -16.5639 -9.85896
upperneck 14.8326 -23.5937 12.2225
head 7.65282 -11.1384 3.22504
rclavicle -1.96002e-013 -6.36111e-015
rhumerus -7.34596 45.0358 -37.5776
rradius 97.4873
rwrist 34.2291
rhand -34.6494 -6.22418
rfingers 7.12502
rthumb -7.80643 -36.0601
lclavicle -1.96002e-013 -6.36111e-015
lhumerus -34.0593 -12.0699 99.9006
lradius 44.8029
lwrist 10.6883
lhand -11.2303 11.2096
lfingers 7.12502
lthumb 14.7986 40.6612
rfemur -44.5993 14.9694 20.035
rtibia 37.5045
rfoot 3.71849 1.22886
rtoes 29.0159
lfemur -9.31324 2.90472 -20.4578
ltibia 43.1236
lfoot -21.2342 -25.0377
ltoes 30.6699
437
root 4.20819 16.6124 17.918 -525.588 76.9752 -176.398
lowerback 3.42864 -8.0238 -6.88511
upperback 0.499778 -10.9223 1.39338
thorax 0.165856 -5.48675 5.42667
lowerneck -2.78077 -16.468 -9.69884
upperneck 14.7832 -23.4961 12.3821
head 7.63827 -11.0731 3.26334
rclavicle 3.06128e-014 1.98785e-014
rhumerus -8.95015 43.4719 -39.2896
rradius 97.9712
rwrist 34.489
rhand -35.2204 -5.5
rfingers 7.12502
rthumb -8.3575 -35.3147
lclavicle 3.06128e-014 1.98785e-014
lhumerus -33.9833 -12.433 99.6723
lradius 44.8823
lwrist 11.0343
lhand -11.693 10.8612
lfingers 7.12502
lthumb 14.3528 40.345
rfemur -45.012 14.4696 20.3752
rtibia 36.6187
rfoot 5.32077 2.78787
rtoes 28.5185
lfemur -9.5613 3.23236 -20.5439
ltibia 42.5722
lfoot -23.401 -22.9267
ltoes 27.8105
438
root 4.04226 16.6234 17.9919 -524.537 77.6278 -175.392
lowerback 3.73078 -7.93232 -7.15087
upperback 0.521952 -10.8296 1.29849
thorax 0.0388223 -5.43489 5.51781
lowerneck -2.82677 -16.3754 -9.52955
upperneck 14.6798 -23.406 12.5816
head 7.60707 -11.0118 3.31468
rclavicle -1.09729e-013 1.11319e-014
rhumerus -10.4215 41.8868 -40.8694
rradius 98.4215
rwrist 34.7735
rhand -35.797 -4.9864
rfingers 7.12502
rthumb -8.91388 -34.7781
lclavicle -1.09729e-013 1.11319e-014
lhumerus -33.8803 -12.8382 99.3926
lradius 44.9613
lwrist 11.3933
lhand -12.1451 10.5226
lfingers 7.12502
lthumb 13.9171 40.0369
rfemur -45.339 13.9809 20.8724
rtibia 35.8027
rfoot 6.91802 4.59109
rtoes 27.6483
lfemur -9.93572 3.68692 -20.5939
ltibia 42.313
lfoot -25.011 -20.991
ltoes 25.1447
439
root 3.87438 16.6331 18.0656 -523.272 78.4607 -174.081
lowerback 4.08985 -7.78087 -7.43485
upperback 0.596483 -10.6614 1.17552
thorax -0.0791076 -5.34599 5.59481
lowerneck -2.85321 -16.2786 -9.35114
upperneck 14.5291 -23.3112 12.811
head 7.55928 -10.9492 3.37729
rclavicle -8.11041e-014 -6.36111e-015
rhumerus -11.74 40.323 -42.331
rradius 98.8131
rwrist 35.052
rhand -36.4224 -4.72678
rfingers 7.12502
rthumb -9.51738 -34.4918
lclavicle -8.11041e-014 -6.36111e-015
lhumerus -33.7559 -13.2704 99.055
lradius 45.0451
lwrist 11.7585
lhand -12.5652 10.2008
lfingers 7.12502
lthumb 13.5123 39.7424
rfemur -45.573 13.5323 21.5178
rtibia 35.115
rfoot 8.47571 6.599
rtoes 26.6585
lfemur -10.3837 4.28913 -20.6015
ltibia 42.3008
lfoot -26.1785 -19.3616
ltoes 22.8806
440
root 3.70579 16.6407 18.1386 -521.728 79.4775 -172.398
lowerback 4.50295 -7.58097 -7.76936
upperback 0.713426 -10.4349 1.04142
thorax -0.185534 -5.22902 5.69086
lowerneck -2.87192 -16.1662 -9.18234
upperneck 14.3562 -23.1897 13.0324
head 7.49995 -10.8769 3.44351
rclavicle -5.88403e-014 2.3059e-014
rhumerus -12.8497 38.8382 -43.6332
rradius 99.119
rwrist 35.3007
rhand -37.1082 -4.69433
rfingers 7.12502
rthumb -10.1791 -34.4281
lclavicle -5.88403e-014 2.3059e-014
lhumerus -33.6135 -13.6614 98.6742
lradius 45.1264
lwrist 12.0994
lhand -13.0069 9.89845
lfingers 7.12502
lthumb 13.0865 39.4679
rfemur -45.7092 13.1347 22.2889
rtibia 34.6211
rfoot 9.94206 8.72249
rtoes 25.8329
lfemur -10.8587 5.05009 -20.5674
ltibia 42.4865
lfoot -27.0062 -18.1301
ltoes 21.1964
441
root 3.53767 16.6453 18.2108 -519.793 80.6657 -170.243
lowerback 4.94146 -7.35835 -8.1603
upperback 0.863405 -10.1838 0.899416
thorax -0.268391 -5.10122 5.80765
lowerneck -2.91149 -16.0207 -9.04615
upperneck 14.2078 -23.0154 13.2164
head 7.44495 -10.7819 3.50742
rclavicle 1.30602e-013 -4.77083e-015
rhumerus -13.6939 37.4864 -44.7724
rradius 99.3159
rwrist 35.4901
rhand -37.8389 -4.77001
rfingers 7.12502
rthumb -10.8838 -34.468
lclavicle 1.30602e-013 -4.77083e-015
lhumerus -33.458 -13.9468 98.2423
lradius 45.1995
lwrist 12.4051
lhand -13.4557 9.60542
lfingers 7.12502
lthumb 12.6539 39.2021
rfemur -45.7642 12.7981 23.1409
rtibia 34.3918
rfoot 11.2855 10.8375
rtoes 25.4296
lfemur -11.332 5.98466 -20.4974
ltibia 42.8189
lfoot -27.5962 -17.3384
ltoes 20.1356
